<svg xmlns="http://www.w3.org/2000/svg" xmlns:xlink="http://www.w3.org/1999/xlink" id="Layer_1" x="0px" y="0px" viewBox="0 0 3000 2000" style="enable-background:new 0 0 3000 2000;" xml:space="preserve"><rect style="fill:#FFFFFF;" width="3000" height="2000"></rect><g>	<path style="fill-rule:evenodd;clip-rule:evenodd;fill:#C4D1EB;" d="M866.641,640.916c52.641,0,95.296-42.655,95.296-95.295  s-42.656-95.295-95.296-95.295c-52.64,0-95.295,42.655-95.295,95.295S814,640.916,866.641,640.916L866.641,640.916z   M724.138,697.594L724.138,697.594L724.138,697.594z M804.016,305.032L804.016,305.032L804.016,305.032z M1016.926,390.637  L1016.926,390.637L1016.926,390.637z M1012.521,688.417c-13.436,13.729-28.78,25.549-45.665,35.093l2.643,48.456l-40.307,14.243  l-28.486-39.278l-11.013,1.542h-46.546l-26.357,40.746l-35.974-10.279l-1.248-0.44l-3.671-1.395v-48.529l-8.003-4.258  l-39.425-28.413l-4.331,1.688l-40.894,15.785c-9.618-10.499-18.354-21.805-26.063-33.919l28.486-39.204  c-8.811-16.813-15.344-35.021-19.162-54.256l-46.84-12.481l-1.175-42.728l46.18-14.904c2.79-19.456,8.37-38.03,16.299-55.283  l-30.615-37.59c7.122-12.481,15.197-24.228,24.228-35.24l46.18,15.05l45.592-35.093l-2.569-48.455  c12.848-5.874,26.284-10.646,40.233-14.243l28.486,39.278l57.559-1.468l26.357-40.82l40.967,12.187v48.456  c17.327,8.663,33.258,19.676,47.428,32.671l12.114-4.699l33.111-12.775c9.617,10.499,18.354,21.878,26.063,33.919l-28.56,39.132  c8.811,16.812,15.344,35.093,19.235,54.329l46.841,12.481l1.101,42.729l-46.106,14.903c-2.79,19.382-8.37,37.957-16.299,55.284  l30.542,37.589c-7.048,12.481-15.197,24.228-24.228,35.24L1012.521,688.417z"></path>	<path style="fill-rule:evenodd;clip-rule:evenodd;fill:#FFFFFF;" d="M733.682,658.169c1.102,0,2.276-0.367,3.157-1.175  c2.128-1.762,2.423-4.919,0.661-7.048c-24.301-29.22-37.663-66.223-37.663-104.326c0-18.208,2.937-36.122,8.884-53.228  c0.881-2.57-0.515-5.433-3.158-6.314c-2.569-0.955-5.433,0.44-6.387,3.083c-6.24,18.134-9.397,37.076-9.397,56.458  c0,40.379,14.243,79.732,40.012,110.787C730.819,657.582,732.214,658.169,733.682,658.169z"></path>	<path style="fill-rule:evenodd;clip-rule:evenodd;fill:#FFFFFF;" d="M747.778,428.079c1.248,0,2.423-0.44,3.451-1.395  c16.298-15.344,35.24-27.018,56.164-34.58c2.643-0.955,3.965-3.818,3.01-6.461c-0.955-2.569-3.818-3.964-6.387-3.01  c-22.319,8.076-42.362,20.483-59.688,36.782c-1.982,1.909-2.129,5.066-0.22,7.048C745.135,427.565,746.383,428.079,747.778,428.079  z"></path>	<path style="fill-rule:evenodd;clip-rule:evenodd;fill:#FFFFFF;" d="M904.451,387.479c2.203,0,4.258-1.542,4.846-3.817  c0.66-2.716-0.955-5.433-3.598-6.094c-13.876-3.524-28.192-5.286-42.582-5.286c-2.79,0-5.065,2.276-5.065,4.992  c0,2.79,2.276,5.066,5.065,5.066c13.582,0,27.018,1.689,40.086,4.992C903.643,387.406,904.011,387.479,904.451,387.479z"></path>	<path style="fill-rule:evenodd;clip-rule:evenodd;fill:#E0E8F5;" d="M1495.534,385.644c-204.908,0-181.561,310.262-329.497,404.75  c-195.877,125.175-532.79,63.212-532.79,277.956c0,377.072,437.054,513.701,913.31,513.701  c476.185,0,882.551-209.092,740.781-585.209C2145.568,620.8,1971.789,385.644,1495.534,385.644z"></path>	<path style="fill-rule:evenodd;clip-rule:evenodd;fill:#C4D1EB;" d="M2031.771,1494.537c-92.8,0-167.979,13.362-167.979,29.882  c0,16.444,75.179,29.807,167.979,29.807s168.053-13.362,168.053-29.807C2199.824,1507.899,2124.571,1494.537,2031.771,1494.537z"></path>	<path style="fill-rule:evenodd;clip-rule:evenodd;fill:#B0C2E4;" d="M1254.578,1243.156h169.227  c37.443,124.663,80.977,198.741,164.599,198.741H1046c-83.622,0-127.159-74.078-164.602-198.741H1254.578z"></path>	<path style="fill-rule:evenodd;clip-rule:evenodd;fill:#B0C2E4;" d="M2032.139,628.729H1828.92h-542.479  c8.664-85.752,30.102-142.356,82.081-142.356h542.406h10.498C1965.183,489.823,2002.111,537.251,2032.139,628.729z"></path>	<path style="fill-rule:evenodd;clip-rule:evenodd;fill:#C4D1EB;" d="M1254.578,1243.156  c69.379-279.94-36.929-756.783,113.944-756.783h542.406c-213.571,0,88.247,955.524-322.523,955.524  c-83.622,0-127.156-74.078-164.599-198.741H1254.578z"></path>	<path style="fill-rule:evenodd;clip-rule:evenodd;fill:#9DB2D9;" d="M1569.83,1440.576  c372.593-39.205,88.101-954.203,297.12-954.203h43.978c-213.571,0,88.247,955.524-322.523,955.524  C1582.017,1441.897,1575.851,1441.456,1569.83,1440.576z"></path>	<path style="fill-rule:evenodd;clip-rule:evenodd;fill:#9DB2D9;" d="M1252.596,1243.156  c69.379-279.94-36.929-756.783,113.944-756.783h35.24c-150.872,0-44.563,476.843-113.943,756.783H1252.596z"></path>	<path style="fill-rule:evenodd;clip-rule:evenodd;fill:#859AC6;" d="M925.448,1279.938  c35.093,102.271,77.822,161.959,152.855,161.959H1046c-83.622,0-127.159-74.078-164.602-198.741H895.2h18.501h510.104h16.592  h16.666c32.303,107.41,69.011,177.229,132.075,194.482c-6.24,1.248-12.628,2.275-19.309,2.938  c-63.727-9.178-102.195-67.104-134.278-160.638H925.448z"></path>	<path style="fill-rule:evenodd;clip-rule:evenodd;fill:#859AC6;" d="M1995.504,628.729  c-27.459-83.769-60.789-130.609-99.774-140.521c4.772-1.175,9.838-1.836,15.198-1.836h10.498  c43.757,3.45,80.686,50.878,110.713,142.356H1995.504z"></path>	<path style="fill-rule:evenodd;clip-rule:evenodd;fill:#FFFFFF;" d="M1730.761,539.968h-333.606  c-6.828,0-12.481,5.579-12.481,12.407l0,0c0,6.828,5.653,12.408,12.481,12.408h333.606c6.755,0,12.334-5.58,12.334-12.408l0,0  C1743.095,545.547,1737.516,539.968,1730.761,539.968L1730.761,539.968z M1706.9,858.672h-332.358  c-6.828,0-12.407,5.58-12.407,12.408l0,0c0,6.901,5.58,12.48,12.407,12.48H1706.9c6.828,0,12.407-5.579,12.407-12.48l0,0  C1719.308,864.252,1713.729,858.672,1706.9,858.672L1706.9,858.672z M1706.9,809.409h-332.358c-6.828,0-12.407,5.58-12.407,12.407  l0,0c0,6.828,5.58,12.408,12.407,12.408H1706.9c6.828,0,12.407-5.58,12.407-12.408l0,0  C1719.308,814.989,1713.729,809.409,1706.9,809.409L1706.9,809.409z M1706.9,725.493h-211.587c-6.828,0-12.408,5.58-12.408,12.408  l0,0c0,6.828,5.58,12.407,12.408,12.407H1706.9c6.828,0,12.407-5.58,12.407-12.407l0,0  C1719.308,731.073,1713.729,725.493,1706.9,725.493L1706.9,725.493z M1710.645,679.093h-333.606  c-6.828,0-12.408,5.58-12.408,12.408l0,0c0,6.828,5.58,12.408,12.408,12.408h333.606c6.828,0,12.407-5.58,12.407-12.408l0,0  C1723.052,684.673,1717.473,679.093,1710.645,679.093L1710.645,679.093z M1714.389,632.694h-333.606  c-6.828,0-12.408,5.579-12.408,12.407l0,0c0,6.828,5.58,12.481,12.408,12.481h333.606c6.828,0,12.407-5.653,12.407-12.481l0,0  C1726.796,638.273,1721.217,632.694,1714.389,632.694L1714.389,632.694z M1722.538,586.294h-333.533  c-6.901,0-12.48,5.653-12.48,12.481l0,0c0,6.828,5.58,12.408,12.48,12.408h333.533c6.827,0,12.407-5.58,12.407-12.408l0,0  C1734.945,591.947,1729.365,586.294,1722.538,586.294z"></path>	<path style="fill-rule:evenodd;clip-rule:evenodd;fill:#9DB2D9;" d="M2074.354,999.117c36.928,33.698,20.851,67.471-6.461,130.169  c-27.312,62.625-32.157,294.109-32.157,294.109l22.539-3.229c0,0-3.23-237.872,27.312-302.112  c30.541-64.313,43.39-96.471,70.701-75.547C2183.6,1063.357,2074.354,999.117,2074.354,999.117z"></path>	<path style="fill-rule:evenodd;clip-rule:evenodd;fill:#C4D1EB;" d="M2054.018,955.434c4.479-20.043,31.202-41.701,66.81-60.053  c-5.286,29.512-22.245,77.747-4.699,87.658c23.714,13.362,2.276-54.035,11.454-91.035c33.478-16.373,73.783-29.734,110.859-36.342  c-0.146,0.146-0.146,0.294-0.146,0.44c-20.924,53.007-48.236,73.929-37.002,81.932c8.442,6.021,36.047-55.208,72.462-86.63  c27.312-1.468,50.438,2.276,64.094,13.068c21.145,16.739,35.313,31.569,14.022,82.519c-12.113,8.663-27.824,14.903-46.105,16.739  c-48.235,4.845-70.701,6.46-36.93,22.538c16.445,7.856,44.198-0.44,66.663-5.579c-7.269,13.435-16.226,28.632-27.164,45.96  c-6.901,11.013-14.464,20.556-22.613,28.778c-15.49,2.938-29.073,3.012-36.194-0.072c-22.539-9.691-80.318-40.159-94.855-27.312  c-14.096,12.555,107.189,20.557,98.747,52.493c-58.808,33.919-126.058,17.767-137.951-13.362  C2099.463,1025.4,2040.508,1015.637,2054.018,955.434z"></path>	<path style="fill-rule:evenodd;clip-rule:evenodd;fill:#9DB2D9;" d="M2175.597,1183.908  c-64.314-48.234-130.17-3.229-163.941,48.236c-33.698,51.392-9.618,167.098-9.618,167.098s12.849,0,12.849-4.846  c0-4.771-35.387-136.557,48.235-196.024c52.273-37.223,89.936-19.309,94.781-1.615c4.847,17.693-20.924,49.851-20.924,49.851  L2175.597,1183.908z"></path>	<path style="fill-rule:evenodd;clip-rule:evenodd;fill:#9DB2D9;" d="M2027.733,1084.796c64.314,0,85.165,99.627,67.472,157.479  c-17.621,57.854-41.775,165.557-41.775,165.557l-16.078-16.079c0,0,61.083-151.093,46.62-218.563  c-14.464-67.472-49.777-78.777-56.238-78.777S2027.733,1084.796,2027.733,1084.796z"></path>	<path style="fill-rule:evenodd;clip-rule:evenodd;fill:#9DB2D9;" d="M2081.623,1242.789c4.551-6.021,10.131-11.012,16.959-14.242  c-0.955,4.771-1.982,9.396-3.377,13.729c-8.003,26.431-17.4,63.065-25.256,95.223c-0.734-4.111-1.836-10.426-3.524-20.264  c-0.367-2.276-0.661-4.771-0.955-7.488C2071.785,1288.382,2077.805,1265.035,2081.623,1242.789z"></path>	<path style="fill-rule:evenodd;clip-rule:evenodd;fill:#C4D1EB;" d="M2099.242,1243.229  c122.094-51.392,57.779-122.02,165.409-75.398c7.636,3.303,16.886,11.599,26.137,22.979c-9.618,2.716-21.218,4.698-34.14,2.716  c-32.156-4.772-20.924,20.924,32.157,27.312c9.985,1.248,18.061,2.937,24.814,5.286c25.329,48.528,36.71,112.328-16.812,134.573  c-10.498,4.332-23.494,6.828-38.031,7.783c-16.519-13.069,4.039-88.982-21.438-78.484c-24.374,10.06,7.71,65.048,3.305,78.852  c-24.154-0.367-50.806-4.332-76.281-10.646c-10.132-5.653-17.84-13.289-20.189-23.2c-8.076-33.771,45.005-54.696,46.619-83.622  c1.469-26.577-19.455,58.514-74.885,71.067C2065.837,1299.027,2042.123,1267.238,2099.242,1243.229z"></path>	<path style="fill-rule:evenodd;clip-rule:evenodd;fill:#C4D1EB;" d="M2012.169,1152.34c12.922-27.312-20.85-33.772-19.235-12.922  c1.396,18.574,1.542,63.506-17.4,75.84c-32.743-3.597-77.308-16.813-111.006-36.929c-0.441-2.644,0-5.506,1.396-8.37  c14.462-28.926,107.702-53.006,78.776-62.624c-23.054-7.71-63.433,37.662-95.957,60.422c-19.528-14.83-32.598-32.45-32.598-52.2  c0-26.649,32.451-56.897,74.373-71.361c18.867,1.909,36.414,12.188,63.799,27.752c40.526,22.906,31.129-14.17-7.121-36.121  c33.037,1.688,65.929,15.785,90.229,49.482c0,0-2.275,14.464,12.995,36.783c41.554,60.789-6.461,96.25-63.874,93.974  C1989.851,1200.061,2003.286,1171.208,2012.169,1152.34z"></path>	<path style="fill-rule:evenodd;clip-rule:evenodd;fill:#9DB2D9;" d="M2171.705,1181.192  c31.423,24.301,66.369,52.714,109.172,71.949c42.875,19.309,34.286,82.153,34.286,82.153s6.46-54.255-29.294-72.902  c-35.681-18.502-59.248-40.674-86.339-44.932c-27.237-4.332-42.215-8.591-42.215-8.591s8.589-17.179,3.597-23.566  C2155.921,1178.844,2171.705,1181.192,2171.705,1181.192z"></path>	<path style="fill-rule:evenodd;clip-rule:evenodd;fill:#9DB2D9;" d="M2326.616,896.042  c-114.973,30.687-199.255,104.25-214.966,122.165c-15.785,17.767-15.785,22.833-15.785,22.833l12.188,22.832l5.727-2.862  c0,0-9.324-19.31,14.978-44.271c41.921-43.169,92.872-77.161,127.892-92.138C2291.669,909.623,2326.616,896.042,2326.616,896.042z"></path>	<path style="fill-rule:evenodd;clip-rule:evenodd;fill:#859AC6;" d="M2009.159,1532.567h43.977  c31.202,0,56.531-25.329,56.531-56.604v-100.949h-157.039v100.949C1952.628,1507.238,1977.957,1532.567,2009.159,1532.567z"></path>	<rect x="1952.628" y="1393.074" style="fill-rule:evenodd;clip-rule:evenodd;fill:#FFFFFF;" width="157.039" height="11.087"></rect>	<rect x="1952.628" y="1413.265" style="fill-rule:evenodd;clip-rule:evenodd;fill:#FFFFFF;" width="157.039" height="6.461"></rect>	<polygon style="fill-rule:evenodd;clip-rule:evenodd;fill:#C4D1EB;" points="1851.532,367.51 1981.334,420.738 1945.653,466.183    "></polygon>	<polygon style="fill-rule:evenodd;clip-rule:evenodd;fill:#C4D1EB;" points="1999.615,399.3 1855.496,367.804 2034.854,380.946    "></polygon>	<polygon style="fill-rule:evenodd;clip-rule:evenodd;fill:#9DB2D9;" points="1999.615,399.3 1996.238,458.988 1981.334,420.738   1851.532,367.51 1855.496,367.804  "></polygon>	<polygon style="fill-rule:evenodd;clip-rule:evenodd;fill:#859AC6;" points="1996.238,458.988 1965.476,440.854 1981.334,420.738    "></polygon>	<path style="fill-rule:evenodd;clip-rule:evenodd;fill:#859AC6;" d="M2029.569,454.583c-4.185-0.514-3.23-6.681,0.661-6.167  l6.24,0.66c4.111,0.514,3.23,6.681-0.734,6.167L2029.569,454.583L2029.569,454.583z M2242.259,701.926  c2.791,0,4.111,3.377,2.276,5.213c-0.44,0.587-1.395,0.954-2.276,0.954h-3.964c-4.038,0-4.185-6.168,0-6.168H2242.259  L2242.259,701.926z M2219.794,701.339c3.671,0,4.185,6.24-0.367,6.24l-6.241-0.44c-4.478-0.514-3.229-6.681,0.441-6.168  L2219.794,701.339L2219.794,701.339z M2195.346,698.989c3.891,0.514,3.304,6.681-0.954,6.167L2195.346,698.989L2195.346,698.989z   M2171.559,693.777c3.744,1.395,2.275,6.975-1.908,5.873c-2.057-0.587-4.039-1.321-6.094-2.128  c-3.746-1.616-1.542-7.195,2.348-5.801C2167.74,692.529,2169.65,693.19,2171.559,693.777L2171.559,693.777z M2150.414,683.131  c3.304,2.716-0.807,7.416-3.891,4.845c-1.763-1.395-3.377-2.937-4.919-4.625c-2.717-3.304,2.202-7.122,4.698-4.111  C2147.624,680.635,2148.945,681.956,2150.414,683.131L2150.414,683.131z M2138.814,664.263c0.514,4.479-5.653,4.772-6.168,1.101  c-0.366-2.202-0.587-4.405-0.734-6.608c0-4.331,6.241-4.111,6.241-0.146C2138.227,660.519,2138.447,662.354,2138.814,664.263  L2138.814,664.263z M2140.503,641.063c-0.954,3.744-7.048,2.496-6.021-1.688c0.514-2.056,1.176-4.112,1.836-6.094  c1.541-4.111,7.268-1.616,5.873,1.982C2141.604,637.099,2141.017,639.081,2140.503,641.063L2140.503,641.063z M2149.093,618.231  c-1.542,3.598-7.415,1.394-5.653-2.57c0.881-1.909,1.762-3.818,2.644-5.727c2.275-3.964,7.414-0.367,5.653,2.79  C2150.781,614.56,2149.9,616.395,2149.093,618.231L2149.093,618.231z M2160.18,596.132c-2.203,3.817-7.416,0.441-5.508-2.863  l2.938-5.506c2.129-3.744,7.415-0.44,5.506,2.937C2162.088,592.461,2161.133,594.37,2160.18,596.132L2160.18,596.132z   M2171.778,574.033c-2.275,3.965-7.415,0.44-5.579-2.79l2.717-5.506c2.129-3.745,7.194-1.028,5.579,2.643L2171.778,574.033  L2171.778,574.033z M2181.837,550.833c-1.396,3.745-6.975,2.203-5.873-1.982c0.587-1.909,1.175-3.744,1.688-5.727  c0.955-3.965,7.049-2.497,6.021,1.542C2183.158,546.722,2182.57,548.777,2181.837,550.833L2181.837,550.833z M2184.994,524.99  c0.514,4.111-5.728,4.846-6.168,0.734c-0.22-1.909-0.586-3.817-1.101-5.727c-0.954-3.964,5.065-5.433,6.02-1.469  C2184.334,520.659,2184.7,522.788,2184.994,524.99L2184.994,524.99z M2175.376,500.616c2.423,3.378-2.644,6.975-4.993,3.671  c-1.174-1.615-2.349-3.083-3.67-4.552c-2.863-3.451,2.203-7.122,4.625-4.185C2172.732,497.092,2174.128,498.927,2175.376,500.616  L2175.376,500.616z M2156.655,482.849c3.155,2.35,0.22,7.342-3.524,5.213c-1.688-1.175-3.378-2.203-5.066-3.23  c-3.45-1.982-0.514-7.488,3.157-5.359C2153.057,480.573,2154.893,481.674,2156.655,482.849L2156.655,482.849z M2134.115,470.955  c3.818,1.615,1.321,7.342-2.349,5.727c-1.909-0.808-3.818-1.542-5.727-2.276c-3.818-1.395-1.688-7.268,2.202-5.8  C2130.225,469.34,2132.207,470.148,2134.115,470.955L2134.115,470.955z M2110.328,462.659c3.672,0.955,2.497,7.048-1.762,5.947  l-5.947-1.615c-3.817-0.955-2.496-7.048,1.615-6.02L2110.328,462.659L2110.328,462.659z M2085.88,456.712  c4.332,1.027,2.423,6.975-1.247,6.094l-6.021-1.249c-3.964-0.954-3.082-6.607,1.102-6.094L2085.88,456.712L2085.88,456.712z   M2061.213,452.307c3.89,0.514,3.377,6.681-0.882,6.168l-6.167-0.881c-3.891-0.514-3.304-6.754,0.881-6.167L2061.213,452.307z"></path>	<polygon style="fill-rule:evenodd;clip-rule:evenodd;fill:#C4D1EB;" points="1383.793,362.958 1254.064,416.185 1289.745,461.705    "></polygon>	<polygon style="fill-rule:evenodd;clip-rule:evenodd;fill:#C4D1EB;" points="1235.783,394.748 1379.828,363.325 1200.47,376.394    "></polygon>	<polygon style="fill-rule:evenodd;clip-rule:evenodd;fill:#9DB2D9;" points="1235.783,394.748 1239.161,454.436 1254.064,416.185   1383.793,362.958 1379.828,363.325  "></polygon>	<polygon style="fill-rule:evenodd;clip-rule:evenodd;fill:#859AC6;" points="1239.161,454.436 1269.849,436.376 1254.064,416.185    "></polygon>	<path style="fill-rule:evenodd;clip-rule:evenodd;fill:#859AC6;" d="M1205.829,450.031c4.185-0.514,3.23-6.681-0.661-6.167  l-6.241,0.661c-4.111,0.514-3.23,6.681,0.734,6.168L1205.829,450.031L1205.829,450.031z M993.139,697.374  c-2.79,0-4.184,3.378-2.275,5.213c0.44,0.587,1.394,1.028,2.275,1.028h3.965c4.038,0,4.111-6.241-0.073-6.241H993.139  L993.139,697.374z M1015.604,696.787c-3.67,0-4.185,6.24,0.294,6.24l6.314-0.44c4.405-0.514,3.23-6.607-0.514-6.167  L1015.604,696.787L1015.604,696.787z M1040.053,694.511c-3.891,0.44-3.377,6.681,0.955,6.167L1040.053,694.511L1040.053,694.511z   M1063.84,689.225c-3.744,1.395-2.276,6.975,1.909,5.947c2.055-0.661,4.038-1.395,6.02-2.129c3.818-1.688,1.542-7.268-2.276-5.8  C1067.658,687.977,1065.749,688.638,1063.84,689.225L1063.84,689.225z M1084.91,678.653c-3.229,2.643,0.882,7.341,3.892,4.845  c1.762-1.468,3.451-3.01,4.919-4.625c2.79-3.377-2.129-7.121-4.625-4.111C1087.774,676.157,1086.379,677.405,1084.91,678.653  L1084.91,678.653z M1096.584,659.711c-0.587,4.478,5.653,4.772,6.094,1.101c0.44-2.202,0.661-4.405,0.734-6.607  c0-4.332-6.24-4.111-6.24-0.147C1097.172,655.967,1096.877,657.876,1096.584,659.711L1096.584,659.711z M1094.896,636.511  c0.954,3.745,7.048,2.497,6.021-1.688c-0.587-1.983-1.175-4.112-1.836-6.094c-1.542-4.111-7.268-1.615-5.947,1.982  C1093.794,632.62,1094.381,634.529,1094.896,636.511L1094.896,636.511z M1086.306,613.679c1.542,3.598,7.342,1.394,5.653-2.57  c-0.881-1.909-1.762-3.818-2.643-5.726c-2.349-3.965-7.415-0.367-5.653,2.79C1084.617,610.008,1085.498,611.843,1086.306,613.679  L1086.306,613.679z M1075.22,591.58c2.129,3.817,7.415,0.514,5.506-2.863l-2.937-5.506c-2.129-3.744-7.415-0.441-5.506,2.937  C1073.311,587.909,1074.265,589.818,1075.22,591.58L1075.22,591.58z M1063.62,569.481c2.276,3.964,7.415,0.44,5.58-2.717  l-2.717-5.579c-2.129-3.745-7.195-0.954-5.653,2.716L1063.62,569.481L1063.62,569.481z M1053.488,546.281  c1.468,3.745,6.975,2.276,5.946-1.909c-0.661-1.909-1.174-3.817-1.688-5.8c-1.027-3.964-7.048-2.422-6.02,1.542  C1052.24,542.244,1052.827,544.226,1053.488,546.281L1053.488,546.281z M1050.404,520.438c-0.514,4.111,5.653,4.846,6.167,0.808  c0.221-1.909,0.588-3.891,1.028-5.727c1.028-4.038-4.992-5.506-6.02-1.541C1051.065,516.107,1050.698,518.236,1050.404,520.438  L1050.404,520.438z M1059.949,496.137c-2.422,3.377,2.716,6.901,5.066,3.598c1.175-1.615,2.35-3.083,3.671-4.552  c2.79-3.377-2.203-7.122-4.625-4.185C1062.592,492.613,1061.197,494.375,1059.949,496.137L1059.949,496.137z M1078.744,478.37  c-3.157,2.276-0.293,7.269,3.451,5.14c1.688-1.101,3.377-2.203,5.139-3.23c3.451-1.982,0.514-7.415-3.157-5.36  C1082.341,476.022,1080.506,477.123,1078.744,478.37L1078.744,478.37z M1101.209,466.403c-3.817,1.615-1.248,7.342,2.423,5.727  c1.909-0.734,3.818-1.542,5.727-2.276c3.744-1.395,1.615-7.268-2.276-5.8C1105.174,464.788,1103.192,465.596,1101.209,466.403  L1101.209,466.403z M1125.07,458.107c-3.745,0.954-2.497,7.048,1.688,6.02l5.947-1.688c3.892-0.955,2.496-6.975-1.541-6.021  L1125.07,458.107L1125.07,458.107z M1149.518,452.161c-4.332,1.028-2.422,6.975,1.249,6.094l6.02-1.249  c3.965-0.955,3.01-6.607-1.175-6.093L1149.518,452.161L1149.518,452.161z M1174.187,447.755c-3.892,0.514-3.377,6.681,0.88,6.168  l6.094-0.881c3.965-0.514,3.377-6.681-0.808-6.167L1174.187,447.755z"></path>	<path style="fill-rule:evenodd;clip-rule:evenodd;fill:#C4D1EB;" d="M541.476,1647.246c0,20.85,152.341,37.736,340.289,37.736  c187.875,0,340.216-16.887,340.216-37.736C1221.981,1595.927,541.476,1596.955,541.476,1647.246z"></path>	<path style="fill-rule:evenodd;clip-rule:evenodd;fill:#C4D1EB;" d="M2137.42,1593.798c-160.051,0-289.778,23.86-289.778,53.301  c0,29.367,129.728,53.228,289.778,53.228c160.049,0,289.777-23.86,289.777-53.228  C2427.197,1617.658,2297.469,1593.798,2137.42,1593.798z"></path>	<path style="fill-rule:evenodd;clip-rule:evenodd;fill:#F27458;" d="M2000.202,1259.97h-0.073H2000.202z"></path>	<path style="fill-rule:evenodd;clip-rule:evenodd;fill:#9DB2D9;" d="M1555,930.619c-11.087-5.066-22.393-9.544-33.479-13.729  l-2.863-1.101l-3.01,0.734c-33.183,7.415-69.892,14.096-104.03,13.949c-15.418-0.073-33.111-1.542-47.501-7.635l-8.883-3.744  l-68.865,137.29l8.443,4.846c0.808,0.44,1.688,1.248,2.422,1.908c2.056,1.763,3.964,3.524,6.167,4.993  c21.145,18.575,49.63,34.286,78.483,31.862v0.44c-0.734,7.416,0.661,15.052,4.479,21.438c2.129,3.671,5.065,6.828,8.59,9.177  c3.598,2.424,7.635,3.965,11.967,4.479c4.332,0.44,8.663-0.146,12.775-1.468c1.468,8.59,4.772,17.032,11.453,22.906  c7.121,6.388,16.445,8.149,25.696,7.635c1.688,7.563,5.14,14.684,11.453,19.529c6.975,5.359,15.711,6.534,24.301,5.727  c0.22,1.248,0.587,2.496,1.028,3.671c1.982,5.139,5.727,8.957,10.646,11.307c5.431,2.495,11.671,3.157,17.545,3.01  c17.913-0.515,39.352-7.929,55.944-14.316l3.01-1.175l11.232,13.509c4.552,5.434,11.013,8.811,17.987,9.397  c7.049,0.661,14.022-1.469,19.456-5.946c5.432-4.553,8.81-11.013,9.397-18.061c0.073-0.734,0.073-1.542,0.146-2.276  c4.405,4.111,9.984,6.755,16.005,7.342c6.901,0.734,13.803-1.248,19.235-5.653l0.588-0.514l0.146-0.147  c4.406-3.817,7.343-8.956,8.59-14.536c3.965,3.011,8.664,4.919,13.656,5.433c6.975,0.734,13.876-1.248,19.309-5.653l0.515-0.367  c5.212-4.478,8.516-10.792,9.323-17.546c0.221-2.423,0.147-4.772-0.22-7.121c2.276,0.954,4.698,1.541,7.195,1.762  c6.9,0.808,13.802-1.249,19.234-5.653l0.147-0.073l0.587-0.515c5.065-4.404,8.297-10.646,9.03-17.399  c0.734-6.682-1.101-13.509-5.433-18.795l-0.514-0.661l-7.269-8.369c22.905,1.321,37.81-8.442,58.66-21.07l6.314-0.955l1.762-1.028  c1.321-0.881,2.717-1.688,4.038-2.495l8.075-4.772l-69.6-150.726l-9.177,3.891c-14.022,5.947-35.681,7.048-50.805,7.122  c-34.065,0.147-70.774-6.534-103.958-13.949l-3.012-0.734l-2.862,1.101c-8.663,3.23-17.253,6.681-25.696,10.352L1555,930.619z"></path>	<path style="fill-rule:evenodd;clip-rule:evenodd;fill:#E0E8F5;" d="M1622.544,1015.856c3.45,11.233,8.002,20.924,13.729,29.147  c1.615,2.276,1.028,5.434-1.248,7.048c-0.367,0.221-0.733,0.44-1.027,0.588c-9.324,4.404-17.841,7.048-25.696,8.003  c-10.059,1.101-18.868-0.588-26.504-5.286c-7.562-4.552-13.729-11.82-18.501-21.806c-1.615-3.377-3.084-7.048-4.405-11.012  c-7.488-2.13-14.316-4.919-20.63-8.37c-5.873-3.231-11.233-6.975-16.005-11.233c-40.158,23.273-71.213,43.242-93.092,59.982  c-21.364,16.372-33.771,29.22-37.002,38.544c-0.587,5.8,0.587,11.013,3.083,15.125c1.395,2.422,3.304,4.478,5.433,5.946  c2.203,1.468,4.698,2.422,7.342,2.717c3.744,0.44,7.929-0.367,12.334-2.717c0.661-0.661,1.468-1.102,2.35-1.322l53.815-32.303  c15.638-9.397,26.87-16.079,33.549-20.117c2.35-1.468,5.434-0.66,6.901,1.615c1.395,2.423,0.661,5.507-1.688,6.975  c-8.664,5.214-19.821,11.968-33.55,20.264l-52.419,31.423l0.073,0.367c1.175,9.177,4.038,15.784,8.59,19.822  c4.405,3.965,10.719,5.579,19.015,4.992h0.293l1.542-0.146c20.997-12.188,38.471-22.539,52.271-31.056  c13.803-8.517,23.861-15.197,30.175-19.97c2.202-1.688,5.434-1.248,7.121,1.028c1.615,2.202,1.175,5.358-1.027,7.048  c-6.461,4.919-16.739,11.673-30.982,20.483c-13.065,8.075-29.658,17.913-49.701,29.514c1.322,6.901,3.965,11.82,7.855,14.83  c4.332,3.304,10.572,4.479,18.722,3.45c15.709-8.369,28.704-15.27,38.836-20.923c9.544-5.213,16.519-9.251,20.924-12.041  c0.66-6.607,3.817-13.068,9.324-17.693c5.652-4.626,12.554-6.607,19.308-5.947c3.011,0.294,6.021,1.102,8.885,2.424  c-0.074-1.396-0.074-2.791,0.073-4.186c0.734-6.387,3.818-12.628,8.957-17.18l0.808-0.66c5.579-4.479,12.407-6.241,19.015-5.58  c2.57,0.294,5.14,0.954,7.562,1.981c0-0.807,0.074-1.541,0.147-2.275c0.733-6.534,3.892-12.848,9.177-17.399l0.514-0.44  c5.58-4.552,12.481-6.314,19.089-5.653c6.681,0.734,13.142,3.964,17.841,9.471l8.663,10.132l0.146-1.689  c0.66-6.461,3.817-12.7,9.03-17.252l0.661-0.515c5.58-4.552,12.408-6.313,19.088-5.653c6.608,0.734,13.068,3.892,17.841,9.397  l9.472,10.939c27.824,5.727,41.921-4.846,65.561-19.089l6.314-1.027c1.321-0.808,2.716-1.615,4.185-2.496l-61.45-133.253  c-13.215,5.653-33.552,7.929-54.77,8.003c-28.191,0.073-63.58-4.699-106.309-14.243c-9.029,3.377-17.473,6.755-25.182,10.132  c6.02,3.01,11.453,6.02,16.372,9.03c16.226,9.764,26.798,19.602,31.643,29.22c0.367,0.734,0.515,1.468,0.587,2.129  C1616.744,991.629,1619.093,1004.55,1622.544,1015.856L1622.544,1015.856z M1614.981,974.963L1614.981,974.963L1614.981,974.963z   M1636.272,1079.95L1636.272,1079.95L1636.272,1079.95z M1537.013,1167.39L1537.013,1167.39c7.194-3.964,12.994-7.194,17.327-9.838  c1.027,2.937,2.569,5.801,4.624,8.296l15.052,18.061c-22.613,8.737-40.086,13.216-52.494,13.582  c-5.359,0.147-9.691-0.513-12.775-1.981c-2.643-1.248-4.476-3.157-5.43-5.653c-0.514-1.174-0.808-2.423-0.955-3.817  C1516.309,1178.622,1527.836,1172.456,1537.013,1167.39L1537.013,1167.39z M1599.931,1199.253l-33.184-39.865  c-2.864-3.378-4.038-7.709-3.671-11.82c0.367-4.185,2.349-8.224,5.726-11.013c3.451-2.863,7.783-4.038,11.895-3.671  c4.185,0.366,8.148,2.275,11.013,5.727l33.185,39.866c2.862,3.45,4.037,7.708,3.67,11.893c-0.367,4.111-2.35,8.15-5.727,11.013  c-3.45,2.791-7.708,4.038-11.893,3.671C1606.833,1204.613,1602.794,1202.703,1599.931,1199.253L1599.931,1199.253  L1599.931,1199.253z M1644.715,1180.164l-40.525-46.399l-0.367-0.44c-2.57-3.156-3.598-7.195-3.157-11.159  c0.44-3.965,2.35-7.855,5.58-10.646l0.514-0.367c3.378-2.79,7.563-3.892,11.6-3.451c4.186,0.441,8.297,2.496,11.307,5.947  l27.531,31.496l14.757,17.326c1.542,2.79,2.13,5.946,1.763,9.104c-0.44,3.964-2.35,7.854-5.507,10.719l-0.514,0.367  c-3.45,2.789-7.563,3.817-11.6,3.377C1651.91,1185.598,1647.799,1183.542,1644.715,1180.164L1644.715,1180.164L1644.715,1180.164z   M1667.695,1182.661L1667.695,1182.661L1667.695,1182.661z M1606.686,1111.152L1606.686,1111.152L1606.686,1111.152z   M1603.822,1133.324L1603.822,1133.324L1603.822,1133.324z M1664.098,1137.583l-23.347-27.458l-0.366-0.367  c-2.644-3.231-3.672-7.342-3.231-11.38s2.423-8.003,5.727-10.793l0.294-0.22c3.377-2.79,7.635-3.892,11.674-3.451  c4.184,0.441,8.296,2.496,11.232,5.947l46.399,54.549l0.294,0.367c2.643,3.304,3.671,7.415,3.304,11.453  c-0.44,4.038-2.423,7.93-5.726,10.719l-0.295,0.293c-3.45,2.791-7.635,3.818-11.746,3.451c-4.186-0.439-8.223-2.496-11.16-5.946  l-6.827-8.076c-0.587-0.881-1.175-1.762-1.836-2.644l-0.66-0.733L1664.098,1137.583L1664.098,1137.583L1664.098,1137.583z   M1678.487,1154.027L1678.487,1154.027L1678.487,1154.027z M1710.352,1166.949L1710.352,1166.949L1710.352,1166.949z   M1642.807,1087.585L1642.807,1087.585L1642.807,1087.585z M1640.678,1110.125L1640.678,1110.125L1640.678,1110.125z   M1723.126,1135.82l-27.091-31.275l-0.295-0.44c-2.569-3.157-3.597-7.269-3.156-11.233c0.367-3.964,2.349-7.93,5.58-10.719  l0.44-0.366c3.377-2.717,7.562-3.818,11.6-3.378c4.259,0.439,8.296,2.496,11.306,5.947l27.091,31.275l0.294,0.367  c2.644,3.23,3.598,7.269,3.23,11.232c-0.44,4.038-2.423,7.929-5.653,10.719l-0.366,0.367c-3.451,2.79-7.636,3.892-11.674,3.451  C1730.247,1141.253,1726.136,1139.271,1723.126,1135.82L1723.126,1135.82L1723.126,1135.82z M1748.895,1115.998L1748.895,1115.998  L1748.895,1115.998z M1695.74,1104.178L1695.74,1104.178L1695.74,1104.178z M1526.514,993.023  c-1.762-1.688-4.479-1.908-6.388-0.587c-41.992,24.228-74.369,45.078-97.055,62.479c-17.106,12.994-28.926,24.301-35.534,33.845  c-28.193,5.653-57.266-10.646-77.896-28.926c-3.303-1.909-6.167-5.58-9.69-7.563l60.202-119.89  c13.215,5.506,30.321,8.369,51.466,8.443c28.192,0.073,63.579-4.699,106.306-14.243c25.329,9.471,45.372,18.795,60.202,27.751  c14.022,8.517,23.126,16.666,27.385,24.375c1.322,14.83,3.744,28.192,7.415,40.086c3.083,10.059,6.975,19.016,11.747,26.871  c-6.314,2.643-12.187,4.258-17.547,4.846c-7.782,0.954-14.464-0.367-20.116-3.744c-5.801-3.524-10.646-9.398-14.61-17.621  c-1.688-3.45-3.157-7.269-4.478-11.525c-0.074-0.44-0.221-0.882-0.441-1.322c-2.35-8.003-4.185-17.4-5.433-28.119  c-0.294-2.79-2.789-4.772-5.58-4.479c-2.79,0.294-4.771,2.79-4.478,5.58c0.953,7.856,2.128,15.051,3.67,21.585  c-4.479-1.542-8.663-3.45-12.555-5.58C1536.865,1001.907,1531.359,997.796,1526.514,993.023L1526.514,993.023z"></path>	<path style="fill-rule:evenodd;clip-rule:evenodd;fill:#FFFFFF;" d="M1803.885,890.095  c14.169,47.866,39.278,106.233,79.217,166.215c-13.509,7.488-45.592,21.438-74.225,25.477  c-35.24-78.411-51.393-114.752-62.552-161.666C1766.516,907.274,1778.482,900.226,1803.885,890.095z"></path>	<path style="fill-rule:evenodd;clip-rule:evenodd;fill:#859AC6;" d="M2162.234,931.28  c-129.582,55.797-225.023,91.258-284.712,116.587c-33.919-52.641-56.385-103.666-70.334-147.127  c70.774-38.838,161.298-88.541,271.423-149.184C2113.779,805.298,2141.604,865.133,2162.234,931.28z"></path>	<path style="fill-rule:evenodd;clip-rule:evenodd;fill:#FFFFFF;" d="M1307.806,890.095  c-14.243,47.866-39.278,106.233-79.217,166.215c13.509,7.488,45.592,21.438,74.225,25.477  c35.24-78.411,51.392-114.752,62.551-161.666C1345.175,907.274,1333.208,900.226,1307.806,890.095z"></path>	<path style="fill-rule:evenodd;clip-rule:evenodd;fill:#859AC6;" d="M965.975,938.328  c121.212,51.759,211.075,85.312,268.193,109.54c33.919-52.641,56.385-103.666,70.334-147.127  c-67.03-36.782-151.754-83.329-254.098-139.566C1015.091,814.108,986.972,873.136,965.975,938.328z"></path>	<path style="fill-rule:evenodd;clip-rule:evenodd;fill:#9DB2D9;" d="M1784.135,923.057c-6.9,0-12.48,5.58-12.48,12.481  c0,6.901,5.58,12.481,12.48,12.481c6.901,0,12.481-5.58,12.481-12.481C1796.616,928.637,1791.036,923.057,1784.135,923.057z"></path>	<path style="fill-rule:evenodd;clip-rule:evenodd;fill:#9DB2D9;" d="M1328.143,922.69c-6.902,0-12.481,5.58-12.481,12.481  c0,6.901,5.58,12.481,12.481,12.481c6.901,0,12.48-5.58,12.48-12.481C1340.623,928.269,1335.043,922.69,1328.143,922.69z"></path>	<path style="fill-rule:evenodd;clip-rule:evenodd;fill:#F9AF79;" d="M682.804,1562.008c0,0-12.481,12.334-12.775,16.887  c-0.294,4.479-1.101,53.007,3.965,57.559c5.066,4.479,20.042,7.782,15.271,12.848c-3.671,3.818-31.643,3.011-50.217,1.983  c-5.359-0.367-12.188-44.052-14.316-50.512c-3.084-9.324-14.316-29.734-11.527-36.122c1.395-3.156,11.674-10.425,20.998-16.519  c9.691-6.461,19.088-20.703,19.088-20.703L682.804,1562.008z"></path>	<path style="fill-rule:evenodd;clip-rule:evenodd;fill:#F9AF79;" d="M849.755,1592.256l-11.159,32.157  c-0.881,5.065-4.111,17.546-4.111,22.172c0,17.326,76.941-14.684,59.761-22.393c-1.615-0.733-6.46-6.24-6.975-12.113  c-0.808-9.104,6.461-20.41,6.461-20.41L849.755,1592.256z"></path>	<path style="fill-rule:evenodd;clip-rule:evenodd;fill:#0E2952;" d="M955.99,985.095l27.899,72.17c0,0,18.207,172.31,7.635,275.388  c-4.479,43.169-100.362,274.067-100.362,274.067l-47.647-6.828l63.799-273.406l-23.42-104.546l-33.258-206.743L955.99,985.095z"></path>	<path style="fill-rule:evenodd;clip-rule:evenodd;fill:#223F81;" d="M824.72,988.839l-23.934,80.318l-36.415,242.645  l-122.974,227.007c0,0,18.501,28.412,38.324,32.891l174.66-229.429l94.562-287.21l-3.304-63.799L824.72,988.839z"></path>	<path style="fill-rule:evenodd;clip-rule:evenodd;fill:#F9AF79;" d="M1201.424,983.7c-18.574-0.881-17.987,2.349-20.41,2.129  c-2.79-0.22-32.744-23.42-32.744-23.42s-88.835-67.689-93.46-71.434l-55.43-102.123L941.6,802.435  c0,0,63.212,109.318,67.544,114.456c4.258,5.139,134.794,82.448,146.1,89.716c0,0,10.352,13.582,17.033,21.878  c6.828,8.37,16.886,13.142,19.162,15.197c0.293,0.294,8.223,6.755,20.042,11.82c10.205,4.552,2.57-4.405,2.57-4.405  s-17.4-11.746-16.226-12.921c0.881-1.028,9.985,6.02,21.218,11.086c2.863,1.321,5.727,2.569,8.296,3.671  c6.902,3.01,10.72-0.294,4.039-4.698c-2.35-1.542-6.387-3.965-9.471-5.287c-3.377-1.469-5.946-3.891-8.59-5.506  c-5.212-3.304-9.104-5.653-8.81-5.727c0.294-0.221-0.293-1.615,2.863-0.294c3.671,1.542,10.866,6.608,16.592,8.517  c3.23,1.028,9.765,3.598,9.765,3.598s11.159,3.084,11.453,2.423c1.762-3.157-5.58-7.636-10.132-8.443  c-2.643-2.129-9.617-4.626-9.617-4.626s-12.995-8.369-11.82-10.278c0.881-1.542,35.828,12.335,37.443,9.104  c1.248-2.717-9.104-7.415-9.104-7.415s-6.46-2.35-8.516-3.304c-2.423-1.102-9.544-4.992-9.544-4.992s-24.007-14.684-22.759-16.373  c1.175-1.761,6.094-4.772,7.856-4.404c1.835,0.44,4.771,2.936,6.534,3.23c1.762,0.44,4.479-0.661,5.139-2.864  c0.587-2.203-7.342-7.489-7.342-7.489S1206.783,983.993,1201.424,983.7z"></path>	<path style="fill-rule:evenodd;clip-rule:evenodd;fill:#466FB5;" d="M1021.405,817.338L962.01,850.89  c0,0-25.476-50.438-36.268-75.106c-13.068-29.88-26.283-69.379-22.392-70.113c11.013-2.056,25.917-2.423,38.838,5.139  C986.825,737.387,1021.405,817.338,1021.405,817.338z"></path>	<path style="fill-rule:evenodd;clip-rule:evenodd;fill:#F9AF79;" d="M731.626,1117.466c-10.352-16.959-12.701-14.463-13.949-16.739  c-1.542-2.643,0.147-43.021,0.147-43.021s4.185-119.157,4.552-125.544l53.081-110.051l-45.886-43.096  c0,0-54.549,121.212-56.311,128.114c-1.762,6.899,10.866,168.71,11.526,183.101c0,0-5.359,17.253-8.296,28.266  c-3.01,10.866-1.101,22.759-1.468,25.916c-0.074,0.587-0.734,11.307,1.909,24.962c2.276,11.674,5.359-0.514,5.359-0.514  s-0.44-22.393,1.248-22.099c1.322,0.22,0.881,12.555,3.304,25.476c0.587,3.304,1.248,6.608,1.762,9.618  c1.542,8.002,6.754,9.25,6.387,0.734c-0.073-3.011-0.44-8.077-1.175-11.601c-0.734-3.817-0.294-7.562-0.44-10.866  c-0.367-6.533-0.661-11.379-0.44-11.232c0.367,0.147,1.175-1.248,1.983,2.35c0.881,4.258,0.881,13.655,2.716,19.749  c1.028,3.45,2.716,10.866,2.716,10.866s4.625,10.718,5.36,10.646c3.744-0.294,2.569-8.591,0.588-13.069  c0.146-3.523-1.836-11.232-1.836-11.232s-0.734-16.519,1.542-16.739c0.955,0,2.569,10.059,5.653,19.823  c2.864,8.957,7.195,17.546,8.958,17.18c3.083-0.441,0.954-10.792,0.954-10.792s-1.909-7.048-2.349-9.472  c-0.514-2.863-1.469-11.453-1.469-11.453s-1.909-30.101,0.294-30.027c2.055,0.146,7.562,2.644,8.296,4.479  c0.808,1.762,0.44,5.873,1.175,7.709c0.808,1.762,3.304,3.523,5.506,2.789c2.276-0.733,1.909-10.938,1.909-10.938  S734.637,1122.458,731.626,1117.466z"></path>	<path style="fill-rule:evenodd;clip-rule:evenodd;fill:#0E2952;" d="M634.789,1547.765c0,0,26.284,80.54,37.517,84.504  c3.01,1.027,19.822,5.286,22.539,11.673l0.221,0.661c0.808,4.111-2.643,7.782-6.754,7.782h-53.448c0,0-7.562-36.121-10.572-52.053  c0,0-15.858-38.838-14.096-42.288C611.956,1554.446,634.789,1547.765,634.789,1547.765z"></path>	<path style="fill-rule:evenodd;clip-rule:evenodd;fill:#0E2952;" d="M830.079,1652.312l8.81-28.266c0,0,18.501,7.929,27.751,6.607  c9.324-1.248,27.385-6.607,27.385-6.607c36.929,12.334,67.25,18.28,61.744,28.266H830.079z"></path>	<path style="fill-rule:evenodd;clip-rule:evenodd;fill:#F48661;" d="M1179.032,1000.953c7.708,3.01,15.05,2.936,22.099-1.322  C1195.844,1007.414,1184.464,1006.753,1179.032,1000.953z"></path>	<path style="fill-rule:evenodd;clip-rule:evenodd;fill:#6D96CE;" d="M833.31,693.997c0,0-35.901,4.992-45.372,11.967  c-10.646,7.855-43.61,44.344-43.61,44.344s68.646,196.61,66.003,231.629c-2.717,34.947-10.205,86.853-10.205,86.853  s134.28,8.517,184.718-11.452c0,0-16.886-79.438-16.886-100.215c0-20.777-8.957-228.914-15.271-239.852  c-6.46-10.866-19.235-17.033-43.61-22.392C884.702,689.592,833.31,693.997,833.31,693.997z"></path>	<path style="fill-rule:evenodd;clip-rule:evenodd;fill:#F9AF79;" d="M843.147,637.906l-8.883,58.22c0,0,32.45,69.38,51.832,63.359  c16.299-5.066,6.314-66.369,6.314-66.369s-8.884-33.038-6.241-49.557C888.813,627.188,843.147,637.906,843.147,637.906z"></path>	<path style="fill-rule:evenodd;clip-rule:evenodd;fill:#F48661;" d="M886.17,643.559c2.643-16.372-43.022-5.653-43.022-5.653  l-0.734,4.772c1.321,3.304,2.937,6.094,4.919,8.149c10.205,10.866,26.21,17.547,39.939,17.987  C885.95,659.932,885.069,650.387,886.17,643.559z"></path>	<path style="fill-rule:evenodd;clip-rule:evenodd;fill:#F9AF79;" d="M835.659,555.532c-1.321-0.44-10.352,66.296,6.828,84.724  c17.18,18.281,50.658,24.374,62.699,9.838c5.947-7.122,17.84-27.165,9.471-49.851c-8.443-22.906-8.81-46.399-23.567-56.825  C864.365,524.55,835.659,555.532,835.659,555.532z"></path>	<path style="fill-rule:evenodd;clip-rule:evenodd;fill:#20386F;" d="M889.694,486.814c-25.035,51.392-52.053,44.124-56.972,49.483  c-39.499,4.552-63.873,70.627-23.934,101.243c18.869,14.463,31.056,22.099,31.056,22.099l3.01-8.81  c2.129-6.534,3.084-13.509,2.35-20.41c-0.44-4.038-1.321-8.516-3.083-12.187c-4.552-9.618,9.764-16.078,13.802-24.154  c3.01-6.167,3.157-20.41,8.003-30.541l5.8-7.856c0,0,13.362-10.426,26.504-7.416C909.297,551.2,918.033,517.575,889.694,486.814z"></path>	<path style="fill-rule:evenodd;clip-rule:evenodd;fill:#F9AF79;" d="M854.968,605.97c0.146,8.149-3.598,14.83-8.296,14.83  c-4.772,0.147-8.737-6.387-8.81-14.537c-0.146-8.223,3.524-14.83,8.296-14.903C850.93,591.286,854.821,597.82,854.968,605.97z"></path>	<path style="fill-rule:evenodd;clip-rule:evenodd;fill:#466FB5;" d="M699.69,820.789l60.129,46.84c0,0,26.504-25.329,39.866-53.521  c13.508-28.486,1.615-111.667-12.702-107.85C754.826,714.995,699.69,820.789,699.69,820.789z"></path>	<path style="fill-rule:evenodd;clip-rule:evenodd;fill:#F48661;" d="M2212.378,1051.023c-6.607,5.8-13.729,8.149-22.172,6.387  C2198.062,1063.357,2209.001,1058.807,2212.378,1051.023z"></path>	<path style="fill-rule:evenodd;clip-rule:evenodd;fill:#F9AF79;" d="M2182.791,1620.814c1.248-8.883-1.541-24.154-8.517-48.087  c13.729,0.073,25.329-6.021,39.426-5.801c3.817,22.466,9.765,59.321,9.765,59.321l0.66,29.146l-97.938,0.734  c0,0,0.807,0.44,29.659-17.767C2157.977,1636.968,2181.543,1629.332,2182.791,1620.814z"></path>	<path style="fill-rule:evenodd;clip-rule:evenodd;fill:#0E2952;" d="M2224.565,1662.883h-101.022  c-3.817-0.293-4.698-3.377-3.377-5.212c2.643-3.892,22.393-13.215,35.607-19.383c23.273,2.424,64.094-7.121,67.838-12.48  C2229.925,1643.648,2226.621,1662.442,2224.565,1662.883z"></path>	<path style="fill-rule:evenodd;clip-rule:evenodd;fill:#F9AF79;" d="M2304.737,1620.814c1.249-8.883,3.378-20.042,0.294-49.629  c13.803,0,26.87-2.569,40.894-2.35c0,23.127-0.44,57.412-0.44,57.412l0.587,29.146l-97.938,0.734c0,0,0.881,0.44,29.734-17.767  C2279.996,1636.968,2303.563,1629.332,2304.737,1620.814z"></path>	<path style="fill-rule:evenodd;clip-rule:evenodd;fill:#0E2952;" d="M2346.512,1662.883H2245.49  c-3.744-0.293-4.699-3.377-3.378-5.212c2.644-3.892,22.393-13.215,35.681-19.383c23.273,2.424,64.094-7.121,67.765-12.48  C2351.945,1643.648,2348.641,1662.442,2346.512,1662.883z"></path>	<path style="fill-rule:evenodd;clip-rule:evenodd;fill:#F9AF79;" d="M2233.596,775.196l-36.854-38.837  c0,0-39.426,21.658-85.385,42.362c-12.628-21.952-33.185-94.341-34.359-97.792c-1.102-3.45,24.154-46.914,18.501-47.941  c-5.652-1.102-12.995,23.2-18.941,20.704c-5.946-2.496-21.365-58.807-24.962-55.724c-6.681,5.726,8.149,35.02,4.552,37.149  c-3.524,2.129-12.555-32.45-19.383-30.982c-6.828,1.468,11.527,31.496,9.545,34.359c-2.057,2.936-21.291-25.255-25.256-18.722  c-2.129,3.524,17.768,24.522,13.656,26.871c-4.039,2.349-22.025-10.866-24.154-6.608c-2.13,4.331,16.738,8.81,21.951,19.602  c5.287,10.866,14.83,15.051,17.987,35.534s11.82,130.022,34.14,138.832C2104.088,841.713,2233.596,775.196,2233.596,775.196z"></path>	<path style="fill-rule:evenodd;clip-rule:evenodd;fill:#20386F;" d="M2209.809,984.801l29.881,16.666l60.716,92.8l-108.583,255.565  c0,0,12.188,38.471,16.225,57.632c4.111,20.117,14.39,192.501,14.39,192.501l-46.326,0.808c0,0-44.051-183.544-51.466-243.159  c-9.029-72.315,46.033-244.626,46.033-244.626c10.277-35.167,32.45-107.482,32.45-107.482S2208.487,987.885,2209.809,984.801z"></path>	<path style="fill-rule:evenodd;clip-rule:evenodd;fill:#223F81;" d="M2313.768,949.928c0,0-3.083,21.805,9.25,46.767  c7.563,15.124,20.558,27.09,29.882,45.666c17.62,35.167,27.164,85.164,20.557,117.321c0,0-36.415,139.199-35.021,190.077  c0.588,18.722,6.975,52.566,11.086,75.399c3.672,20.189,4.919,172.531,4.919,172.531l-51.759-1.542l-39.571-245.802l-16.74-218.416  l-36.562-147.128L2313.768,949.928z"></path>	<path style="fill-rule:evenodd;clip-rule:evenodd;fill:#20386F;" d="M2204.229,629.243c4.552-21.584,9.323-43.316,30.761-58.88  c17.328-12.555,35.975-16.151,55.798-8.957c56.091,20.263,25.916,64.828,95.516,112.182c21.585,14.757,29.808,19.896,45.299,39.572  c21.731,27.458,33.625,64.314,22.686,94.708c-22.612,62.772-92.505,80.906-129.141,67.617  c-68.058-24.741-124.81-111.153-128.627-134.72C2192.482,715.508,2201.293,643.119,2204.229,629.243z"></path>	<path style="fill-rule:evenodd;clip-rule:evenodd;fill:#6D96CE;" d="M2193.363,799.644c-16.52,7.562-46.4,19.015-46.4,19.015  l-16.959-53.741c96.03-54.549,88.468-45.739,160.49-44.712c57.633,0.881,81.714-10.132,131.271,123.635  c0,0-37.663,16.959-51.245,22.392c-5.8-16.519-16.299-49.483-22.393-30.688c-9.25,28.412-16.005,57.118-20.557,86.63  c-2.938,17.473-9.178,39.866-5.873,57.706c0,0-39.205,8.076-69.159,9.397h-0.294c-14.463-0.367-29.221-1.615-42.436-4.478  c0,0-5.873-124.147-9.03-129.286c-3.451-5.727-18.134-24.301-5.653-51.979C2197.327,798.617,2196.741,798.029,2193.363,799.644z"></path>	<path style="fill-rule:evenodd;clip-rule:evenodd;fill:#F9AF79;" d="M2265.386,1015.049c-0.66,0.073-3.744-0.294-6.241-0.22  c-3.449,0-6.46,0.587-6.46,0.587s-1.321-1.248-3.965-2.423c-1.101-0.441-2.863-0.66-4.038-1.248  c-1.248-0.514-2.275-1.615-3.45-2.129c-3.084-1.322-5.874-1.615-6.828-0.073c-0.734,1.394,16.299,11.747,16.299,11.747  c15.711,0.147,32.229,8.148,68.719-15.639c20.851-9.104,122.093-59.101,124.075-70.04c1.175-6.093-14.389-53.445-27.018-89.347  c-9.838,4.332-30.615,13.582-42.288,18.501c10.718,22.612,23.347,52.638,21.951,56.309c-0.294,0.955-1.615,2.716-70.04,47.501  c-1.688,1.102-3.45,2.276-5.286,3.451c-4.771,3.157-9.984,6.534-15.417,10.058l-19.529-2.056c0,0-30.908,2.203-31.863,5.653  c-0.367,1.616,2.202,2.423,5.359,2.937h0.074c0.439,0,0.953,0.073,1.395,0.147h0.073c3.378,0.367,6.975,0.44,7.855,0.808  c0.954,0.294,2.937,1.101,4.626,2.202c-19.31,7.929-17.768,5.14-24.154,4.699c-1.615-0.073-3.305,0.367-4.846,0.221  c-2.57-0.221-4.626-1.762-6.607-1.909c-2.938-0.146-5.36,1.249-5.873,1.762c-0.734,0.734,0.586,1.688,3.082,2.863  c14.831,6.388,27.166,3.892,31.13,4.919c2.643,0.587-2.203,1.615-9.765,0.808c-1.835-0.221-4.332,0.514-6.828-0.073  c-1.688-0.44-3.23-1.469-4.846-1.835c-1.541-0.441-3.083-0.367-4.331-0.588c-1.688-0.294-3.964-1.615-5.286-1.762  c-4.992-0.587-7.342,0.294-7.93,0.734c-1.101,1.028,21.292,9.618,21.292,9.618s15.49,2.276,18.941,2.276  C2267.368,1013.508,2269.497,1014.462,2265.386,1015.049z"></path>	<path style="fill-rule:evenodd;clip-rule:evenodd;fill:#F9AF79;" d="M2283.446,667.273c0,0,4.405,35.461,6.975,47.721  c2.716,12.848,6.755,53.448-19.896,59.982c-26.725,6.607-18.429-44.05-18.941-57.192c-0.367-13.068-8.003-58.734-8.003-58.734  L2283.446,667.273z"></path>	<path style="fill-rule:evenodd;clip-rule:evenodd;fill:#F27458;" d="M2284.915,678.58c-0.294,0.146-0.515,0.293-0.808,0.514  c-14.758,8.443-27.605,7.121-37.223,0.514c-1.762-11.307-3.304-20.557-3.304-20.557l39.865,8.223  C2283.446,667.273,2284.033,671.972,2284.915,678.58z"></path>	<path style="fill-rule:evenodd;clip-rule:evenodd;fill:#F9AF79;" d="M2275.443,574.914c0,0,15.639,4.405,24.669,19.97  c8.956,15.564,13.508,60.129-19.75,79.217c-33.185,19.015-56.751-11.453-55.723-40.012  C2225.667,605.529,2233.596,567.793,2275.443,574.914z"></path>	<path style="fill-rule:evenodd;clip-rule:evenodd;fill:#F9AF79;" d="M2217.297,621.828c-0.367,7.415,2.79,13.582,7.049,13.802  c4.331,0.22,8.075-5.58,8.442-12.995c0.367-7.415-2.789-13.656-7.048-13.875C2221.408,608.612,2217.664,614.413,2217.297,621.828z"></path>	<path style="fill-rule:evenodd;clip-rule:evenodd;fill:#20386F;" d="M2270.745,573.813c0,0,17.914,46.693,35.387,51.612  c17.548,4.992,16.152,27.899,16.152,27.899s2.202-53.008-13.803-66.076C2292.477,574.327,2270.745,573.813,2270.745,573.813z"></path>	<path style="fill-rule:evenodd;clip-rule:evenodd;fill:#F9AF79;" d="M2298.644,634.529c-2.716,7.342-0.954,14.757,3.964,16.592  c4.846,1.836,11.013-2.569,13.729-9.911c2.717-7.269,0.954-14.684-3.964-16.519C2307.527,622.856,2301.36,627.261,2298.644,634.529  z"></path></g></svg>